<?xml version="1.0" encoding="UTF-8"?>
<svg width="45px" height="35px" viewBox="0 0 45 35" version="1.1" xmlns="http://www.w3.org/2000/svg" xmlns:xlink="http://www.w3.org/1999/xlink">
    <!-- Generator: Sketch 63.1 (92452) - https://sketch.com -->
    <title>icon-dispatch</title>
    <desc>Created with Sketch.</desc>
    <g id="Admin-backend" stroke="none" stroke-width="1" fill="none" fill-rule="evenodd">
        <g id="Assets-overview-Copy" transform="translate(-373.000000, -248.000000)">
            <g id="icon-dispatch" transform="translate(373.000000, 248.000000)">
                <rect id="Rectangle-Copy-5" fill="#EA526F" x="0" y="0" width="45" height="34.875"></rect>
                <g id="Logo-Copy-15" transform="translate(11.250000, 10.125000)" fill="#FFFFFF" stroke="#FFFFFF">
                    <g id="Fill-399">
                        <path d="M16.2412031,6.26785714 C16.1102812,6.26785714 15.9852656,6.32322321 15.8927344,6.420375 C15.8011875,6.51857143 15.7490156,6.65228571 15.7490156,6.79017857 L15.75,7.83482143 C15.75,8.69874107 15.0875156,9.40178571 14.2734375,9.40178571 L9.84375,9.40178571 C9.0286875,9.40178571 8.3671875,8.69874107 8.3671875,7.83482143 L8.3671875,6.79017857 C8.3671875,6.50185714 8.14570313,6.26785714 7.875,6.26785714 L1.34859375,6.26785714 L4.22001563,1.04464286 L19.404,1.04464286 L22.2754219,6.26785714 L16.2412031,6.26785714 Z M23.5580625,6.52692857 L20.11275,0.259071429 C20.0241562,0.0992410714 19.8617344,0 19.6875,0 L3.9375,0 C3.76228125,0 3.59985937,0.0992410714 3.51126563,0.259071429 L0.065953125,6.52692857 C0.06496875,6.5300625 0.039375,6.60214286 0.024609375,6.65646429 C0.010828125,6.712875 0,6.78704464 0,6.79017857 L0,14.1026786 C0,14.391 0.2205,14.625 0.4921875,14.625 L23.1328125,14.625 C23.4035156,14.625 23.625,14.391 23.625,14.1026786 L23.625,6.79017857 C23.625,6.78704464 23.6131875,6.712875 23.5994062,6.65646429 C23.585625,6.60214286 23.5590469,6.5300625 23.5580625,6.52692857 Z"></path>
                    </g>
                </g>
            </g>
        </g>
    </g>
</svg>