<?xml version="1.0" encoding="UTF-8"?>
<svg width="59px" height="17px" viewBox="0 0 59 17" version="1.1" xmlns="http://www.w3.org/2000/svg" xmlns:xlink="http://www.w3.org/1999/xlink">
    <title>Airstrip</title>
    <desc></desc>
    <defs></defs>
    <g id="Symbols" stroke="none" stroke-width="1" fill="none" fill-rule="evenodd">
        <g id="Logos/Airstrip" transform="translate(0.000000, -4.000000)" fill="#383A3F">
            <g id="Logo">
                <path d="M0.3203125,15.6328125 L1.1328125,15.515625 L4.59375,5.625 L6.9296875,5.625 L10.3671875,15.515625 L11.1796875,15.6328125 L11.1796875,17 L7.3046875,17 L7.3046875,15.6328125 L8.09375,15.4921875 L7.59375,13.9296875 L3.90625,13.9296875 L3.40625,15.4921875 L4.1953125,15.6328125 L4.1953125,17 L0.3203125,17 L0.3203125,15.6328125 Z M4.4453125,12.25 L7.0546875,12.25 L5.7734375,8.2421875 L5.7265625,8.2421875 L4.4453125,12.25 Z M11.9140625,15.6328125 L13.015625,15.3984375 L13.015625,10.15625 L11.796875,9.921875 L11.796875,8.546875 L15.296875,8.546875 L15.296875,15.3984375 L16.390625,15.6328125 L16.390625,17 L11.9140625,17 L11.9140625,15.6328125 Z M15.296875,6.5234375 L13.015625,6.5234375 L13.015625,4.8125 L15.296875,4.8125 L15.296875,6.5234375 Z M17.3125,15.6328125 L18.40625,15.3984375 L18.40625,10.15625 L17.1953125,9.921875 L17.1953125,8.546875 L20.53125,8.546875 L20.6328125,9.78125 C20.8307302,9.34374781 21.0859359,9.00260539 21.3984375,8.7578125 C21.7109391,8.51301961 22.0729146,8.390625 22.484375,8.390625 C22.6041673,8.390625 22.7304681,8.39973949 22.8632812,8.41796875 C22.9960944,8.43619801 23.1067704,8.4583332 23.1953125,8.484375 L22.953125,10.5625 L22.015625,10.5390625 C21.68229,10.5390625 21.4062511,10.604166 21.1875,10.734375 C20.9687489,10.864584 20.8020839,11.049478 20.6875,11.2890625 L20.6875,15.3984375 L21.78125,15.6328125 L21.78125,17 L17.3125,17 L17.3125,15.6328125 Z M30.7734375,11.453125 L29.2421875,11.453125 L29,10.3984375 C28.8437492,10.2734369 28.6471366,10.1692713 28.4101562,10.0859375 C28.1731759,10.0026038 27.9114598,9.9609375 27.625,9.9609375 C27.2239563,9.9609375 26.9062512,10.0507804 26.671875,10.2304688 C26.4374988,10.4101571 26.3203125,10.6354153 26.3203125,10.90625 C26.3203125,11.1614596 26.4322905,11.3736971 26.65625,11.5429688 C26.8802095,11.7122404 27.3281216,11.8619785 28,11.9921875 C29.0468802,12.2005219 29.8229141,12.5065084 30.328125,12.9101562 C30.8333359,13.3138041 31.0859375,13.8697881 31.0859375,14.578125 C31.0859375,15.3385455 30.7591179,15.959633 30.1054688,16.4414062 C29.4518196,16.9231795 28.5911512,17.1640625 27.5234375,17.1640625 C26.8723926,17.1640625 26.2747423,17.0690114 25.7304688,16.8789062 C25.1861952,16.6888011 24.7031271,16.4166684 24.28125,16.0625 L24.2578125,14.1640625 L25.8515625,14.1640625 L26.1640625,15.265625 C26.2994798,15.3802089 26.4843738,15.4648435 26.71875,15.5195312 C26.9531262,15.574219 27.1979154,15.6015625 27.453125,15.6015625 C27.916669,15.6015625 28.26953,15.51823 28.5117188,15.3515625 C28.7539075,15.184895 28.875,14.9583348 28.875,14.671875 C28.875,14.4218737 28.7526054,14.2057301 28.5078125,14.0234375 C28.2630196,13.8411449 27.8125033,13.6796882 27.15625,13.5390625 C26.1614534,13.3359365 25.4101588,13.0351582 24.9023438,12.6367188 C24.3945287,12.2382793 24.140625,11.6953159 24.140625,11.0078125 C24.140625,10.2994756 24.4322887,9.68880465 25.015625,9.17578125 C25.5989613,8.66275785 26.4296821,8.40625 27.5078125,8.40625 C28.1640658,8.40625 28.7851533,8.49479078 29.3710938,8.671875 C29.9570342,8.84895922 30.416665,9.07551945 30.75,9.3515625 L30.7734375,11.453125 Z M35.4765625,6.4765625 L35.4765625,8.546875 L36.9609375,8.546875 L36.9609375,10.1484375 L35.4765625,10.1484375 L35.4765625,14.453125 C35.4765625,14.7812516 35.5442702,15.0156243 35.6796875,15.15625 C35.8151048,15.2968757 35.9973947,15.3671875 36.2265625,15.3671875 C36.3828133,15.3671875 36.5195307,15.3606771 36.6367188,15.3476562 C36.7539068,15.3346354 36.8854159,15.3125002 37.03125,15.28125 L37.2265625,16.9296875 C36.9713529,17.0078129 36.7187512,17.0664061 36.46875,17.1054688 C36.2187488,17.1445314 35.9479181,17.1640625 35.65625,17.1640625 C34.8697877,17.1640625 34.264325,16.9479188 33.8398438,16.515625 C33.4153625,16.0833312 33.203125,15.3984422 33.203125,14.4609375 L33.203125,10.1484375 L31.9609375,10.1484375 L31.9609375,8.546875 L33.203125,8.546875 L33.203125,6.4765625 L35.4765625,6.4765625 Z M38.25,15.6328125 L39.34375,15.3984375 L39.34375,10.15625 L38.1328125,9.921875 L38.1328125,8.546875 L41.46875,8.546875 L41.5703125,9.78125 C41.7682302,9.34374781 42.0234359,9.00260539 42.3359375,8.7578125 C42.6484391,8.51301961 43.0104146,8.390625 43.421875,8.390625 C43.5416673,8.390625 43.6679681,8.39973949 43.8007812,8.41796875 C43.9335944,8.43619801 44.0442704,8.4583332 44.1328125,8.484375 L43.890625,10.5625 L42.953125,10.5390625 C42.61979,10.5390625 42.3437511,10.604166 42.125,10.734375 C41.9062489,10.864584 41.7395839,11.049478 41.625,11.2890625 L41.625,15.3984375 L42.71875,15.6328125 L42.71875,17 L38.25,17 L38.25,15.6328125 Z M44.7421875,15.6328125 L45.84375,15.3984375 L45.84375,10.15625 L44.625,9.921875 L44.625,8.546875 L48.125,8.546875 L48.125,15.3984375 L49.21875,15.6328125 L49.21875,17 L44.7421875,17 L44.7421875,15.6328125 Z M48.125,6.5234375 L45.84375,6.5234375 L45.84375,4.8125 L48.125,4.8125 L48.125,6.5234375 Z M49.796875,9.921875 L49.796875,8.546875 L53.109375,8.546875 L53.21875,9.53125 C53.4687512,9.16666484 53.7682274,8.88541766 54.1171875,8.6875 C54.4661476,8.48958234 54.8723935,8.390625 55.3359375,8.390625 C56.3828177,8.390625 57.1953096,8.79947508 57.7734375,9.6171875 C58.3515654,10.4348999 58.640625,11.51041 58.640625,12.84375 L58.640625,13.0078125 C58.640625,14.2578188 58.3515654,15.263017 57.7734375,16.0234375 C57.1953096,16.783858 56.388026,17.1640625 55.3515625,17.1640625 C54.908852,17.1640625 54.5156267,17.0820321 54.171875,16.9179688 C53.8281233,16.7539054 53.5338554,16.5130224 53.2890625,16.1953125 L53.2890625,18.640625 L54.390625,18.875 L54.390625,20.25 L49.9140625,20.25 L49.9140625,18.875 L51.015625,18.640625 L51.015625,10.15625 L49.796875,9.921875 Z M56.359375,12.84375 C56.359375,12.046871 56.2265638,11.4010441 55.9609375,10.90625 C55.6953112,10.4114559 55.2890652,10.1640625 54.7421875,10.1640625 C54.3984358,10.1640625 54.10547,10.2343743 53.8632812,10.375 C53.6210925,10.5156257 53.4296882,10.7161445 53.2890625,10.9765625 L53.2890625,14.6796875 C53.4296882,14.919272 53.6210925,15.1015619 53.8632812,15.2265625 C54.10547,15.3515631 54.4036441,15.4140625 54.7578125,15.4140625 C55.3098986,15.4140625 55.7148425,15.1979188 55.9726562,14.765625 C56.23047,14.3333312 56.359375,13.7473995 56.359375,13.0078125 L56.359375,12.84375 Z" id="Airstrip"></path>
            </g>
        </g>
    </g>
</svg>
