<?xml version="1.0" encoding="UTF-8"?>
<svg width="138px" height="35px" viewBox="0 0 138 35" version="1.1" xmlns="http://www.w3.org/2000/svg" xmlns:xlink="http://www.w3.org/1999/xlink">
    <!-- Generator: Sketch 63.1 (92452) - https://sketch.com -->
    <title>logo-firmhouse</title>
    <desc>Created with Sketch.</desc>
    <g id="Admin-backend" stroke="none" stroke-width="1" fill="none" fill-rule="evenodd">
        <g id="Product-switcher-icons" transform="translate(-41.000000, -22.000000)">
            <g id="logo-firmhouse" transform="translate(41.000000, 22.000000)">
                <g id="Logo" transform="translate(56.000000, 8.000000)" fill="#383A3F" font-family="RobotoSlab-Bold, Roboto Slab" font-size="16" font-weight="bold">
                    <text id="GoMonthly">
                        <tspan x="0" y="17">Firmhouse</tspan>
                    </text>
                </g>
                <g id="icon-firmhouse" fill="#000000" fill-rule="nonzero">
                    <path d="M0,0 L0,34.875 L45,34.875 L45,0 L0,0 Z M36.0802139,25.9962729 L29.3101604,25.9962729 L29.3101604,18.4373567 C29.3101604,17.5014908 28.5481283,17.3095183 27.6096257,17.3095183 L26.6871658,17.4215023 L26.7352941,23.0047018 L27.5213904,23.0047018 L27.5213904,25.9882741 L19.828877,25.9882741 L19.828877,23.0446961 L20.7032086,23.0446961 L20.7032086,12.8541571 L21.7139037,11.8463016 L20.7032086,11.8463016 L18.4893048,11.8463016 C17.5508021,11.8463016 16.7887701,12.6061927 16.7887701,13.5420585 L16.7887701,13.9100057 L19.3235294,13.9100057 L19.3235294,17.3095183 L16.7887701,17.3095183 L16.7887701,23.0286984 L17.6871658,23.0286984 L17.6871658,26.0122706 L9.99465241,26.0122706 L9.99465241,23.0286984 L10.868984,23.0286984 L10.868984,18.3413704 L11.8796791,17.3335149 L10.868984,17.3335149 L8.88770053,17.3335149 L8.88770053,13.8860092 L10.868984,13.8860092 L10.868984,12.2862385 C10.868984,10.406508 12.4010695,8.88672592 14.2860963,8.88672592 L26.6951872,8.90272362 L26.6951872,13.9100057 L26.7272727,13.9100057 C27.6176471,13.5340596 28.7647059,13.3100917 30.0160428,13.3100917 C32.2459893,13.3100917 34.1390374,14.0219897 34.8368984,15.0138475 C35.1096257,15.3817947 35.2620321,15.8617259 35.2620321,16.4616399 L35.2620321,23.0047018 L36.0882353,23.0047018 L36.0882353,25.9962729 L36.0802139,25.9962729 Z" id="Shape"></path>
                </g>
            </g>
        </g>
    </g>
</svg>