<?xml version="1.0" encoding="UTF-8"?>
<svg width="45px" height="35px" viewBox="0 0 45 35" version="1.1" xmlns="http://www.w3.org/2000/svg" xmlns:xlink="http://www.w3.org/1999/xlink">
    <!-- Generator: Sketch 48.2 (47327) - http://www.bohemiancoding.com/sketch -->
    <title>Combined Shape</title>
    <desc>Created with Sketch.</desc>
    <defs></defs>
    <g id="footer" stroke="none" stroke-width="1" fill="none" fill-rule="evenodd" transform="translate(-165.000000, -80.000000)">
        <g fill="#000" id="Group-5">
            <g transform="translate(165.000000, 80.000000)">
                <path d="M0,35 L0,0 L44.5641026,0 L44.5641026,35 L0,35 Z M35.730719,26.0891284 L35.730719,23.0929358 L34.9096591,23.0929358 L34.9096591,16.5242546 C34.9096591,15.9232339 34.7553132,15.4458372 34.4853072,15.0736812 C33.7909492,14.0793119 31.9151262,13.3667087 29.70964,13.3667087 C28.46963,13.3667087 27.334,13.5920413 26.4254007,13.9659633 L26.4254007,8.9415367 L14.1372267,8.92347477 C12.271095,8.92066514 10.7568688,10.4487041 10.7568688,12.3345298 L10.7568688,13.9429243 L8.79541277,13.9429243 L8.79541277,17.4000573 L10.7568688,17.4000573 L11.7603952,17.4000573 L10.7568688,18.4142546 L10.7568688,23.1159748 L9.89021217,23.1159748 L9.89021217,26.1121674 L17.507814,26.1121674 L17.507814,23.1159748 L16.6182795,23.1159748 L16.6182795,17.3770183 L19.1270558,17.3770183 L19.1270558,13.9659633 L16.6182795,13.9659633 L16.6182795,13.5971789 C16.6182795,12.6552294 17.3739628,11.8916514 18.305996,11.8916514 L20.4955153,11.8916514 L21.4990417,11.8916514 L20.4955153,12.9057683 L20.4955153,23.1390138 L19.6288587,23.1390138 L19.6288587,26.0891284 L27.2464605,26.0891284 L27.2464605,23.0929358 L26.4709975,23.0929358 L26.4254007,17.4922936 L27.3377335,17.3770183 C28.2698462,17.3770183 29.02545,17.564461 29.02545,18.5064106 L29.02545,26.0891284 L35.730719,26.0891284 Z" id="Combined-Shape"></path>
            </g>
        </g>
    </g>
</svg>
