<svg width="67" height="17" viewBox="0 0 67 17" xmlns="http://www.w3.org/2000/svg">
  <title>
    Dispatch
  </title>
  <path d="M5.5546875 1.625c1.39063195 0 2.53645383.44400598 3.4375 1.33203125C9.89323367 3.84505652 10.34375 4.98436805 10.34375 6.375v1.8828125c0 1.3958403-.45051633 2.5351518-1.3515625 3.4179687C8.09114133 12.5585982 6.94531945 13 5.5546875 13H.4375v-1.3671875l1.2109375-.234375V3.234375L.4375 3V1.625h5.1171875zm-1.625 1.7578125V11.25H5.4375c.81771242 0 1.45833102-.2760389 1.921875-.828125.46354398-.5520861.6953125-1.273433.6953125-2.1640625V6.359375c0-.88021273-.23176852-1.5963514-.6953125-2.1484375-.46354398-.5520861-1.10416258-.828125-1.921875-.828125H3.9296875zm7.515625 8.25l1.1015625-.234375V6.15625l-1.21875-.234375v-1.375h3.5v6.8515625l1.09375.234375V13h-4.4765625v-1.3671875zm3.3828125-9.109375h-2.28125V.8125h2.28125v1.7109375zm8.7421875 4.9296875h-1.53125l-.2421875-1.0546875c-.1562508-.1250006-.3528634-.2291662-.5898438-.3125-.2369803-.0833337-.4986964-.125-.7851562-.125-.4010437 0-.7187488.0898429-.953125.2695313-.2343762.1796883-.3515625.4049465-.3515625.6757812 0 .2552096.111978.4674471.3359375.6367188.2239595.1692716.6718716.3190097 1.34375.4492187 1.0468802.2083344 1.8229141.5143209 2.328125.9179687.5052109.4036479.7578125.9596319.7578125 1.6679688 0 .7604205-.3268196 1.381508-.9804687 1.8632812-.6536492.4817733-1.5143176.7226563-2.5820313.7226563-.6510449 0-1.2486952-.0950511-1.7929687-.2851563-.5442736-.1901051-1.0273417-.4622378-1.4492188-.8164062l-.0234375-1.8984375h1.59375l.3125 1.1015625c.1354173.1145839.3203113.1992185.5546875.2539062.2343762.0546878.4791654.0820313.734375.0820313.463544 0 .816405-.0833325 1.0585938-.25.2421887-.1666675.3632812-.3932277.3632812-.6796875 0-.2500013-.1223946-.4661449-.3671875-.6484375-.2447929-.1822926-.6953092-.3437493-1.3515625-.484375-.9947966-.203126-1.7460912-.5039043-2.2539062-.9023437-.5078151-.3984395-.7617188-.9414029-.7617188-1.6289063 0-.7083369.2916637-1.31900785.875-1.83203125S19.2265571 4.40625 20.3046875 4.40625c.6562533 0 1.2773408.08854078 1.8632813.265625.5859404.17708422 1.0455712.40364445 1.3789062.6796875l.0234375 2.1015625zm1.1640625-1.53125v-1.375h3.3125l.109375.984375c.2500013-.36458516.5494774-.64583234.8984375-.84375s.755206-.296875 1.21875-.296875c1.0468802 0 1.8593721.40885008 2.4375 1.2265625.5781279.8177124.8671875 1.8932225.8671875 3.2265625v.1640625c0 1.2500063-.2890596 2.2552045-.8671875 3.015625-.5781279.7604205-1.3854115 1.140625-2.421875 1.140625-.4427105 0-.8359358-.0820304-1.1796875-.2460937-.3437517-.1640634-.6380196-.4049464-.8828125-.7226563v2.4453125l1.1015625.234375v1.375h-4.4765625v-1.375l1.1015625-.234375V6.15625l-1.21875-.234375zm6.5625 2.921875c0-.796879-.1328112-1.4427059-.3984375-1.9375s-.6718723-.7421875-1.21875-.7421875c-.3437517 0-.6367175.0703118-.8789063.2109375-.2421887.1406257-.433593.3411445-.5742187.6015625v3.703125c.1406257.2395845.33203.4218744.5742187.546875.2421888.1250006.5403629.1875.8945313.1875.5520861 0 .95703-.2161437 1.2148437-.6484375.2578138-.4322938.3867188-1.0182255.3867188-1.7578125V8.84375zM39.9765625 13c-.0625003-.1406257-.1171873-.2851555-.1640625-.4335938-.0468752-.1484382-.0833332-.2981763-.109375-.4492187-.2708347.3125016-.6002585.5651032-.9882812.7578125-.3880228.1927093-.8320288.2890625-1.3320313.2890625-.8281291 0-1.4856746-.2252582-1.9726563-.6757813-.4869816-.450523-.7304687-1.0637982-.7304687-1.8398437 0-.7916706.3177052-1.4036437.953125-1.8359375.6354198-.4322938 1.5677022-.6484375 2.796875-.6484375H39.59375v-.828125c0-.406252-.1171863-.721353-.3515625-.9453125-.2343762-.2239595-.5807269-.3359375-1.0390625-.3359375-.260418 0-.4921865.0299476-.6953125.0898437-.203126.0598962-.3671869.1315101-.4921875.2148438l-.1484375.90625h-1.71875l.0078125-1.875c.4166687-.2812514.8945286-.5182282 1.4335938-.7109375.5390651-.1927093 1.1262989-.2890625 1.7617187-.2890625 1.0468802 0 1.8971321.25650785 2.5507813.76953125.6536491.5130234.9804687 1.24348485.9804687 2.19140625V10.84375c0 .130209.0013021.2526036.0039063.3671875.0026041.1145839.0117186.2239578.0273437.328125l.6953125.09375V13h-2.6328125zM38 11.4765625c.3437517 0 .6562486-.074218.9375-.2226563.2812514-.1484382.4999992-.3346342.65625-.5585937V9.40625h-1.1640625c-.4843774 0-.8515613.1132801-1.1015625.3398438-.2500012.2265636-.375.4986963-.375.8164062 0 .2864598.092447.5104159.2773438.671875.1848967.1614591.4414046.2421875.7695312.2421875zm8.125-9V4.546875h1.484375v1.6015625H46.125v4.3046875c0 .3281266.0677077.5624993.203125.703125.1354173.1406257.3177072.2109375.546875.2109375.1562508 0 .2929682-.0065104.4101562-.0195313.1171881-.0130208.2486972-.035156.3945313-.0664062L47.875 12.9296875c-.2552096.0781254-.5078113.1367186-.7578125.1757813-.2500012.0390626-.5208319.0585937-.8125.0585937-.7864623 0-1.391925-.2161437-1.8164063-.6484375-.4244812-.4322938-.6367187-1.1171828-.6367187-2.0546875v-4.3125H42.609375V4.546875h1.2421875V2.4765625H46.125zm6.5703125 8.9375c.406252 0 .7317696-.1184884.9765625-.3554687.2447929-.2369804.3671875-.5533835.3671875-.9492188h2.0625l.0234375.046875c.0208334.8541709-.2994759 1.5690075-.9609375 2.1445312-.6614616.5755238-1.4843701.8632813-2.46875.8632813-1.260423 0-2.2317674-.3984335-2.9140625-1.1953125-.6822951-.796879-1.0234375-1.8203062-1.0234375-3.0703125v-.234375c0-1.2447979.3502569-2.2682252 1.0507813-3.0703125.7005243-.80208734 1.6992122-1.203125 2.9960937-1.203125.6822951 0 1.2942681.10156148 1.8359375.3046875.5416694.20312602.9921857.48958148 1.3515625.859375l.03125 2.2578125H54.171875l-.375-1.3203125c-.1145839-.0989588-.2552075-.1809893-.421875-.2460937-.1666675-.0651045-.3567698-.0976563-.5703125-.0976563-.6458366 0-1.1015612.2343727-1.3671875.703125-.2656263.4687523-.3984375 1.072913-.3984375 1.8125v.234375c0 .7552121.1223946 1.3632789.3671875 1.8242187.2447929.4609399.6744761.6914063 1.2890625.6914063zm4.3359375.21875l1.1015625-.234375V2.421875l-1.21875-.234375V.8125H60.40625V5.625c.2656263-.39062695.5911439-.69400934.9765625-.91015625.3854186-.2161469.8124977-.32421875 1.28125-.32421875.8854211 0 1.5794246.29296582 2.0820313.87890625C65.2487004 5.85547168 65.5 6.7604105 65.5 7.984375v3.4140625l1.09375.234375V13h-4.359375v-1.3671875l.984375-.234375V7.96875c0-.6562533-.1158843-1.1210924-.3476562-1.3945312-.231772-.2734389-.5768207-.4101563-1.0351563-.4101563-.3177099 0-.5950509.0572911-.8320313.171875-.2369803.1145839-.4361971.2760406-.5976562.484375v4.578125l.984375.234375V13H57.03125v-1.3671875z" fill="#383A3F" fill-rule="evenodd"/>
</svg>
